P3
10 10
255
0 153 255 0 153 255 255 255 255 255 255 255 255 255 255 255 255 255 255 255 255 255 255 255 255 255 255 255 255 255 0 153 255 0 153 255 0 153 255 0 153 255 255 255 255 255 255 255 255 255 255 255 255 255 255 255 255 255 255 255 0 153 255 0 153 255 0 153 255 0 153 255 0 153 255 0 153 255 255 255 255 255 255 255 255 255 255 255 255 255 0 153 255 0 153 255 0 153 255 0 153 255 0 153 255 0 153 255 0 153 255 255 255 255 255 255 255 255 255 255 0 153 255 0 153 255 0 153 255 0 153 255 0 153 255 0 153 255 0 153 255 0 153 255 255 255 255 255 255 255 0 153 255 0 153 255 0 153 255 0 153 255 0 153 255 0 153 255 0 153 255 0 153 255 255 255 255 255 255 255 0 153 255 0 153 255 0 153 255 0 153 255 0 153 255 0 153 255 0 153 255 255 255 255 255 255 255 255 255 255 0 153 255 0 153 255 0 153 255 0 153 255 0 153 255 0 153 255 255 255 255 255 255 255 255 255 255 255 255 255 0 153 255 0 153 255 0 153 255 0 153 255 255 255 255 255 255 255 255 255 255 255 255 255 255 255 255 255 255 255 0 153 255 0 153 255 255 255 255 255 255 255 255 255 255 255 255 255 255 255 255 255 255 255 255 255 255 255 255 255 